<?xml version="1.0" encoding="UTF-8"?><svg id="Layer_2" xmlns="http://www.w3.org/2000/svg" viewBox="0 0 391.40054 197.0313"><g id="bluclod"><line x1="193.9883" y1="103.17629" x2="193.9883" y2="142.66664" style="fill:none; stroke:#021c35; stroke-miterlimit:10;"/><polygon points="189.00198 104.63527 193.9883 96.00002 198.97463 104.63527 189.00198 104.63527" style="fill:#021c35;"/><path d="M234.1812,191l-.13505-.3525-10.04615-3.7432v-33.4863c0-.0527.19315-.1074.18825-.1641-.0078-.1093.07852-.2187.06092-.3281-.0694-.4355-.17469-.8594-.40119-1.2383-.4502-.7597-1.16889-1.3398-2.02039-1.5859-.212-.0625-.41745-.085-.63725-.1065-.1103-.0078-.20743.0049-.31775.0049h-49.7432c-.1104,0-.2207-.0127-.3311-.0049-.2187.0215-.4375.05425-.6503.11675-.8506.2461-1.5928.82107-2.045,1.58078-.2246.3789-.3789.80024-.4492,1.23574-.0166.1094.16524.21752.15844.32682-.0059.0567.18776.11012.18776.16282v33.4863l-10.04615,3.7432-.13404.3525h-.8198v2.7793c0,.0684.1951.1368.2029.2051.0635,1.1016.82405,2.1387,1.79085,2.666.47861.2676,1.07758.377,1.62348.3809l1.36278-.0313h68.041l1.3135.0313c.5478-.0039,1.0976-.1299,1.5771-.3975.9658-.5273,1.8235-1.5561,1.888-2.6577.0068-.0683.2004-.1284.2004-.1968v-2.7793h-.8188ZM169,156.0235v-2.5684c0-.0254.2122-.0527.2141-.0801.003-.0527.1159-.1074.12371-.1601.03319-.211.16094-.416.26934-.5996.2197-.3711.61218-.6563,1.02328-.7754.1036-.0293.22214.06545.32964.05365.05271-.0039.12054.10645.17524.10645h49.7314c.0547,0,.1074-.11035.1621-.10645.1074.0118.2119-.02583.3145.00347.4121.1191.7773.37574.997.74684.1094.1836.18561.37432.2188.58532.00781.0527.2234.10026.2273.15296.0029.0274.2136.04756.2136.07296v33.5449h-54v-30.9765ZM233,192.6289v1.1426c0,.0391.1272.0801.1233.1211-.0381.6465-.3651,1.40525-.9354,1.71775-.2813.1582-.53799.38965-.8642.38965h-70.6464c-.3252,0-.6456-.23145-.9278-.38965-.5693-.3125-.8342-.99753-.8713-1.64402-.0049-.041.1218-.15573.1218-.19483v-1.7324l-.1499-.0391h74.29981l-.14991.0391v.5898Z" style="fill:#021c35;"/><path d="M197.4233,194.7305c.4141,0,.7481-.4541.7481-.8643,0-.414-.334-.8662-.7481-.8662h-4.6005c-.4121,0-.7461.4522-.7461.8662" style="fill:#021c35;"/><polygon points="196.4442 169.18745 199.16688 172.99995 196.4442 176.81245 197.54968 177.60155 200.83678 172.99995 197.54968 168.39845 196.4442 169.18745" style="fill:#021c35;"/><polygon points="190.43448 168.39845 187.14738 172.99995 190.43448 177.60155 191.54088 176.81245 188.81828 172.99995 191.54088 169.18745 190.43448 168.39845" style="fill:#021c35;"/><rect x="189.56319" y="172.32086" width="8.69953" height="1.35818" transform="translate(-22.74743 316.49035) rotate(-75.25365)" style="fill:#021c35;"/><g id="Page-1"><g id="Compute-Taxonomy"><g id="Main-Menu"><g id="Imported-Layers"><path id="Fill-1" d="M96,85H1.71634c-.64964,0-1.29929-.85029-1.29929-1.5,0-.64964.64964-1.5,1.29929-1.5h93.98573c.64964,0,1.29929.85029,1.29929,1.5,0,.64964-.64964,1.5-1.29929,1.5" style="fill:#021c35;"/><path id="Fill-2" d="M91.80394,72H5.60843c-2.97448,0-5.60843-2.57124-5.60843-5.54572V5.15709C0,2.2899,2.5246,0,5.39179,0h86.41807c2.86719,0,5.19015,2.2899,5.19015,5.15709v61.72455c0,2.81521-2.38072,5.11836-5.19606,5.11836h0ZM5.39784,2c-1.51592,0-2.39784,1.43045-2.39784,2.94637v61.93527c0,1.29935.88191,2.11836,2.39784,2.11836h86.19551c1.55161,0,2.40665-.77747,2.40665-2.32908V4.94637c0-1.29935-.68-2.94637-2.19593-2.94637H5.39784Z" style="fill:#021c35;"/></g></g></g></g><g id="Page-1-2"><g id="Compute-Taxonomy-2"><g id="Main-Menu-2"><g id="Imported-Layers-2"><path id="Fill-1-2" d="M243,85h-93.88448c-.64964,0-1.29929-.85029-1.29929-1.5,0-.64964.64964-1.5,1.29929-1.5h93.98573c.64964,0,1.29929.85029,1.29929,1.5,0,.64964-.64964,1.5-1.29929,1.5" style="fill:#021c35;"/><path id="Fill-2-2" d="M239.20312,72h-86.19551c-2.97448,0-5.0076-2.57124-5.0076-5.54572V5.15709c0-2.86719,1.92378-5.15709,4.79097-5.15709h86.41807c2.86719,0,4.79097,2.2899,4.79097,5.15709v61.72455c0,2.81521-1.98154,5.11836-4.79688,5.11836h0ZM152.79701,2c-1.51592,0-2.79701,1.43045-2.79701,2.94637v61.93527c0,1.29935,1.28109,2.11836,2.79701,2.11836h86.19551c1.55161,0,3.00747-.77747,3.00747-2.32908V4.94637c0-1.29935-1.28083-2.94637-2.79675-2.94637h-86.40624Z" style="fill:#021c35;"/></g></g></g></g><g id="Page-1-3"><g id="Compute-Taxonomy-3"><g id="Main-Menu-3"><g id="Imported-Layers-3"><path id="Fill-1-3" d="M390,85h-93.88448c-.64964,0-1.29929-.85029-1.29929-1.5,0-.64964.64964-1.5,1.29929-1.5h93.98573c.64964,0,1.29929.85029,1.29929,1.5,0,.64964-.64964,1.5-1.29929,1.5" style="fill:#021c35;"/><path id="Fill-2-3" d="M386.20312,72h-86.19551c-2.97448,0-5.0076-2.57124-5.0076-5.54572V5.15709c0-2.86719,1.92378-5.15709,4.79097-5.15709h86.41807c2.86719,0,4.79097,2.2899,4.79097,5.15709v61.72455c0,2.81521-1.98154,5.11836-4.79688,5.11836h0ZM299.79701,2c-1.51592,0-2.79701,1.43045-2.79701,2.94637v61.93527c0,1.29935,1.28109,2.11836,2.79701,2.11836h86.19551c1.55161,0,3.00747-.77747,3.00747-2.32908V4.94637c0-1.29935-1.28083-2.94637-2.79675-2.94637h-86.40624Z" style="fill:#021c35;"/></g></g></g></g><g id="Docs"><g id="_2-Docs-landing-redesign-Copy"><g id="Group"><g id="Layer_1-2"><path d="M30.5,25v18" style="fill:none; stroke:#2d3f49;"/><ellipse cx="68.4362" cy="36.70245" rx="4.23265" ry="4.21069" style="fill:none; stroke:#2d3f49; stroke-width:1.24166px;"/><path id="Shape" d="M73.00082,22.66684l-4.56463,4.54093-4.48163-4.54093" style="fill:none; stroke:#2d3f49; stroke-linecap:round; stroke-linejoin:round; stroke-width:1.24166px;"/><path id="Shape-2" d="M35.4879,38.51883l-4.8966,4.95374-4.8966-4.95374" style="fill:none; stroke:#2d3f49; stroke-linecap:round; stroke-linejoin:round; stroke-width:1.24166px;"/><path id="Shape-3" d="M68.5,27v-6.97515c0-1.89894-1.22571-3.52485-2.80258-3.52485h-28.69742" style="fill:none; stroke:#2d3f49;"/><ellipse cx="30.5913" cy="18.53872" rx="6.39047" ry="6.43987" style="fill:none; stroke:#2d3f49; stroke-width:1.24166px;"/><ellipse cx="30.5913" cy="54.54773" rx="6.39047" ry="6.43987" style="fill:none; stroke:#2d3f49; stroke-width:1.24166px;"/><path id="Shape-4" d="M72.91783,50.24268l-4.73061-4.70605-4.48163,4.62349" style="fill:none; stroke:#2d3f49; stroke-linecap:round; stroke-linejoin:round; stroke-width:1.24166px;"/><path id="Shape-5" d="M68.5,46v6.80212c0,1.89892-1.47468,3.69788-3.05156,3.69788h-28.44844" style="fill:none; stroke:#2d3f49;"/></g></g></g></g><rect x="355" y="57" width="12" height="1" style="fill:#2d3f49;"/><path d="M363.91694,61.47801c-.19993,0-.39977-.07633-.55234-.22891-.30524-.30516-.30524-.79953,0-1.10469l2.57257-2.57266-2.57257-2.57266c-.30524-.30516-.30524-.79953,0-1.10469.30515-.30523.79952-.30523,1.10469,0l3.125,3.125c.30522.30516.30522.79953,0,1.10469l-3.125,3.125c-.15259.15258-.35243.22891-.55234.22891Z" style="fill:#2d3f49;"/><path d="M345.9482,19.29052c-.19993,0-.39977-.07633-.55234-.22891l-3.125-3.125c-.30524-.30516-.30524-.79953,0-1.10469l3.125-3.125c.30515-.30523.79952-.30523,1.10469,0,.30523.30516.30523.79953,0,1.10469l-2.57259,2.57266,2.57259,2.57266c.30523.30516.30523.79953,0,1.10469-.15259.15258-.35243.22891-.55234.22891Z" style="fill:#2d3f49;"/><path d="M342.8232,58h-24.8232v-1h24.8232c11.2003,0,20.40089-9.21654,20.40089-20.41724s-9.2241-20.41724-20.2241-20.41724v-1.5625c12,0,21.78659,9.63638,21.78659,21.69849s-9.9013,21.69849-21.96339,21.69849Z" style="fill:#2d3f49;"/><path d="M338.61866,42h-6.43469l-2.73437-5.5,2.73437-5.5h6.43469l2.73437,5.5-2.73437,5.5ZM333.14991,40h4.50281l1.95312-3.5-1.95312-3.5h-4.50281l-1.95312,3.5,1.95312,3.5Z" style="fill:#2d3f49;"/><path d="M349.55616,48h-6.43469l-2.73437-5.5,2.73437-5.5h6.43469l2.73437,5.5-2.73437,5.5ZM344.08741,47h4.50281l1.95312-4-1.95312-4h-4.50281l-1.95312,4,1.95312,4Z" style="fill:#2d3f49;"/><path d="M349.55616,36h-6.43469l-2.73437-5.5,2.73437-5.5h6.43469l2.73437,5.5-2.73437,5.5ZM344.08741,34h4.50281l1.95312-4-1.95312-4h-4.50281l-1.95312,4,1.95312,4Z" style="fill:#2d3f49;"/><circle cx="352.97945" cy="36.47801" r="1.5625" style="fill:#2d3f49;"/><circle cx="337.35445" cy="45.07176" r="1.5625" style="fill:#2d3f49;"/><circle cx="337.35445" cy="27.88427" r="1.5625" style="fill:#2d3f49;"/><path d="M331.48327,55.18832c-6.59679-4.00695-10.53507-11.00156-10.53507-18.71031,0-10.55453,7.52179-19.6014,17.88522-21.51187l.28305,1.53656c-9.62179,1.77383-16.60577,10.17461-16.60577,19.97531,0,7.15867,3.65749,13.65359,9.7835,17.37515l-.81094,1.33516Z" style="fill:#2d3f49;"/><rect x="170.5" y="28.5" width="5" height="32" style="fill:#e5e8ec; stroke:#2d3f49;"/><rect x="170.5" y="57.5" width="5" height="3" style="fill:#d5e962; stroke:#2d3f49;"/><rect x="179.5" y="28.5" width="5" height="32" style="fill:#e5e8ec; stroke:#2d3f49;"/><rect x="179.5" y="55.5" width="5" height="5" style="fill:#d5e962; stroke:#2d3f49;"/><rect x="188.5" y="28.5" width="5" height="32" style="fill:#e5e8ec; stroke:#2d3f49;"/><rect x="188.5" y="48.5" width="5" height="12" style="fill:#d5e962; stroke:#2d3f49;"/><rect x="197.5" y="28.5" width="5" height="32" style="fill:#e5e8ec; stroke:#2d3f49;"/><rect x="197.5" y="50.5" width="5" height="10" style="fill:#d5e962; stroke:#2d3f49;"/><rect x="206.5" y="28.5" width="5" height="32" style="fill:#e5e8ec; stroke:#2d3f49;"/><rect x="206.5" y="43.5" width="5" height="17" style="fill:#d5e962; stroke:#2d3f49;"/><rect x="215.5" y="28.5" width="5" height="32" style="fill:#e5e8ec; stroke:#2d3f49;"/><rect x="215.5" y="36.5" width="5" height="24" style="fill:#d5e962; stroke:#2d3f49;"/><line x1="170" y1="21.5" x2="204" y2="21.5" style="fill:none; stroke:#2d3f49; stroke-miterlimit:10;"/><line x1="170" y1="25.5" x2="194" y2="25.5" style="fill:none; stroke:#2d3f49; stroke-miterlimit:10;"/><rect x="170.5" y="15.5" width="17" height="3" style="fill:none; stroke:#2d3f49; stroke-miterlimit:10;"/><path d="M198.96575,166.80587l-2.34606-4.05993c-.07059-.12221-.07058-.27201.00003-.39422l2.34602-4.10723c.07055-.12209.20085-.24449.34185-.24449h4.68708c.14103,0,.27135.12282.34189.24494l2.34516,4.08383c.07057.12218.07058.28462.00003.40681l-2.3452,4.06428c-.07053.12215-.20087.20014-.34192.20014h-4.687c-.14103,0-.27135-.07201-.34189-.19413Z" style="fill:#021c35;"/><path d="M207.32209,161.89953l-2.34468-4.01157c-.07055-.12217-.07056-.24847-.00002-.37064l2.3447-4.19047c.07053-.12216.20087-.32685.34192-.32685h4.68788c.14105,0,.27139.21681.34192.33896l2.3448,4.1318c.07054.12218.07054.3081-.00002.43027l-2.34477,3.98081c-.07054.12213-.20086.11816-.3419.11816h-4.68794c-.14104,0-.27137.02167-.3419-.10047Z" style="fill:#0af;"/><path d="M207.32209,171.76819l-2.34467-4.07676c-.07055-.12216-.07057-.28129-.00005-.40346l2.34474-4.07628c.07052-.12218.20087-.21169.34194-.21169h4.68783c.14107,0,.27142.0852.34194.20737l2.34483,4.06701c.07053.12218.07051.27519-.00005.39735l-2.34476,4.09523c-.07054.12212-.20086.23305-.34189.23305h-4.68796c-.14103,0-.27136-.10968-.34189-.23181Z" style="fill:#021c35;"/><path d="M192.06226,159.93803l-1.58623-2.68033c-.07049-.12212-.0705-.2387-.00003-.36083l1.58628-2.72426c.07051-.12221.20088-.17261.34198-.17261h3.17614c.14111,0,.27149.06735.342.18959l1.58582,2.74517c.07044.12211.07043.27053-.00003.39263l-1.58578,2.6116c-.07052.1222-.20088.06102-.34197.06102h-3.17622c-.14107,0-.27142.06021-.34195-.06197Z" style="fill:#021c35;"/><path d="M208.07969,179.00212l-1.58849-2.64937c-.07062-.12222-.07062-.22299,0-.34521l1.58849-2.77966c.07055-.12209.20085-.22787.34186-.22787h3.17286c.14104,0,.27137.13074.34191.25288l1.58757,2.77683c.07056.12218.07056.2866,0,.40877l-1.58757,2.55661c-.07053.12214-.20086.0049-.34191.0049h-3.17286c-.14101,0-.27131.12421-.34186.00212Z" style="fill:#0072be;"/><path d="M187.21275,162.92659l-1.19308-2.00481c-.07051-.12215-.07051-.24162,0-.36377l1.19307-2.21366c.07053-.12217.20087-.34435.34194-.34435h2.38652c.14104,0,.27137.23766.34191.3598l1.19351,2.14795c.07055.12217.07056.31332,0,.43549l-1.19352,1.9631c-.07053.12214-.20087.09366-.34191.09366h-2.38651c-.14107,0-.27142.04877-.34194-.07341Z" style="fill:#0af;"/><path d="M203.72174,182.70684l-1.19304-2.11421c-.07053-.12215-.07053-.29659-.00001-.41875l1.19306-2.02158c.07053-.12217.20087-.1523.34194-.1523h2.38555c.141,0,.27129.01809.34184.14017l1.19438,2.03816c.07064.12224.07064.25863-.00001.38086l-1.19436,2.15495c-.07055.12206-.20084.28586-.34183.28586h-2.38559c-.14105,0-.27139-.17101-.34192-.29316Z" style="fill:#0af;"/></g></svg>